<svg xmlns="http://www.w3.org/2000/svg" viewBox="0 0 1040 655" role="img" aria-label="Creative variety by impression-share rank"><rect width="1040" height="655" fill="white"/><style>text{font-family:Manrope,Arial,sans-serif;fill:#0e1512}</style><text x="20" y="30" font-size="23" font-weight="700">Creative variety by impression-share rank</text><g transform="translate(0 56)"><title id="title">Creative variety by impression-share rank</title><desc id="desc">median distinct ads per advertiser. US. Exact values are available in the adjacent data table.</desc><rect width="1040" height="506" fill="white"/><style>text{font-family:Manrope,Arial,sans-serif;fill:#0e1512}</style><text x="20" y="32" font-size="19" font-weight="700">median distinct ads per advertiser</text><text x="20" y="120" font-size="18" font-weight="600">1-50</text><rect x="342" y="100" width="585" height="23" fill="#f1f3f1"/><rect x="342" y="100" width="585.000" height="23" fill="#ffc71d"/><text x="943" y="119" font-size="18" font-weight="700">191</text><text x="20" y="178" font-size="18" font-weight="600">51-100</text><rect x="342" y="158" width="585" height="23" fill="#f1f3f1"/><rect x="342" y="158" width="474.738" height="23" fill="#0e1512"/><text x="943" y="177" font-size="18" font-weight="700">155</text><text x="20" y="236" font-size="18" font-weight="600">101-200</text><rect x="342" y="216" width="585" height="23" fill="#f1f3f1"/><rect x="342" y="216" width="153.141" height="23" fill="#0e1512"/><text x="943" y="235" font-size="18" font-weight="700">50</text><text x="20" y="294" font-size="18" font-weight="600">201-300</text><rect x="342" y="274" width="585" height="23" fill="#f1f3f1"/><rect x="342" y="274" width="98.010" height="23" fill="#0e1512"/><text x="943" y="293" font-size="18" font-weight="700">32</text><text x="20" y="352" font-size="18" font-weight="600">301-400</text><rect x="342" y="332" width="585" height="23" fill="#f1f3f1"/><rect x="342" y="332" width="82.696" height="23" fill="#0e1512"/><text x="943" y="351" font-size="18" font-weight="700">27</text><text x="20" y="410" font-size="18" font-weight="600">401-496</text><rect x="342" y="390" width="585" height="23" fill="#f1f3f1"/><rect x="342" y="390" width="30.628" height="23" fill="#0e1512"/><text x="943" y="409" font-size="18" font-weight="700">10</text><text x="342" y="486" font-size="16">0</text><text x="927" y="486" text-anchor="end" font-size="16">191</text></g><text x="20" y="586" font-size="15">Graphite + Similarweb · The State of ChatGPT Ads · September 28, 2026 · p. 22</text><text x="20" y="607" font-size="15">US · April 1 to August 16, 2026 · 400+ US advertisers; rank groups extend to 496</text><text x="20" y="628" font-size="15">Recreated by RISE DTC · resources.risedtc.com/guides/chatgpt-ads/</text></svg>