<svg xmlns="http://www.w3.org/2000/svg" viewBox="0 0 1040 887" role="img" aria-label="Leading advertisers by impression share"><rect width="1040" height="887" fill="white"/><style>text{font-family:Manrope,Arial,sans-serif;fill:#0e1512}</style><text x="20" y="30" font-size="23" font-weight="700">Leading advertisers by impression share</text><g transform="translate(0 56)"><title id="title">Leading advertisers by impression share</title><desc id="desc">percent of impressions. Worldwide. Exact values are available in the adjacent data table.</desc><rect width="1040" height="738" fill="white"/><style>text{font-family:Manrope,Arial,sans-serif;fill:#0e1512}</style><text x="20" y="32" font-size="19" font-weight="700">percent of impressions</text><text x="20" y="120" font-size="18" font-weight="600">Monday.com</text><rect x="342" y="100" width="585" height="23" fill="#f1f3f1"/><rect x="342" y="100" width="585.000" height="23" fill="#ffc71d"/><text x="943" y="119" font-size="18" font-weight="700">2.23%</text><text x="20" y="178" font-size="18" font-weight="600">Jotform</text><rect x="342" y="158" width="585" height="23" fill="#f1f3f1"/><rect x="342" y="158" width="585.000" height="23" fill="#0e1512"/><text x="943" y="177" font-size="18" font-weight="700">2.23%</text><text x="20" y="236" font-size="18" font-weight="600">Resume.io</text><rect x="342" y="216" width="585" height="23" fill="#f1f3f1"/><rect x="342" y="216" width="566.637" height="23" fill="#0e1512"/><text x="943" y="235" font-size="18" font-weight="700">2.16%</text><text x="20" y="294" font-size="18" font-weight="600">Booking.com</text><rect x="342" y="274" width="585" height="23" fill="#f1f3f1"/><rect x="342" y="274" width="372.511" height="23" fill="#0e1512"/><text x="943" y="293" font-size="18" font-weight="700">1.42%</text><text x="20" y="352" font-size="18" font-weight="600">Design.com</text><rect x="342" y="332" width="585" height="23" fill="#f1f3f1"/><rect x="342" y="332" width="312.175" height="23" fill="#0e1512"/><text x="943" y="351" font-size="18" font-weight="700">1.19%</text><text x="20" y="410" font-size="18" font-weight="600">Cursor</text><rect x="342" y="390" width="585" height="23" fill="#f1f3f1"/><rect x="342" y="390" width="254.462" height="23" fill="#0e1512"/><text x="943" y="409" font-size="18" font-weight="700">0.97%</text><text x="20" y="468" font-size="18" font-weight="600">ManageEngine</text><rect x="342" y="448" width="585" height="23" fill="#f1f3f1"/><rect x="342" y="448" width="228.229" height="23" fill="#0e1512"/><text x="943" y="467" font-size="18" font-weight="700">0.87%</text><text x="20" y="526" font-size="18" font-weight="600">Shopify</text><rect x="342" y="506" width="585" height="23" fill="#f1f3f1"/><rect x="342" y="506" width="220.359" height="23" fill="#0e1512"/><text x="943" y="525" font-size="18" font-weight="700">0.84%</text><text x="20" y="584" font-size="18" font-weight="600">HubSpot</text><rect x="342" y="564" width="585" height="23" fill="#f1f3f1"/><rect x="342" y="564" width="217.735" height="23" fill="#0e1512"/><text x="943" y="583" font-size="18" font-weight="700">0.83%</text><text x="20" y="642" font-size="18" font-weight="600">Cloudflare</text><rect x="342" y="622" width="585" height="23" fill="#f1f3f1"/><rect x="342" y="622" width="175.762" height="23" fill="#0e1512"/><text x="943" y="641" font-size="18" font-weight="700">0.67%</text><text x="342" y="718" font-size="16">0</text><text x="927" y="718" text-anchor="end" font-size="16">2.23%</text></g><text x="20" y="818" font-size="15">Graphite + Similarweb · The State of ChatGPT Ads · September 28, 2026 · p. 14</text><text x="20" y="839" font-size="15">Worldwide · May 4 to September 14, 2026, according to the footnote · Similarweb panel; volume undisclosed</text><text x="20" y="860" font-size="15">Recreated by RISE DTC · resources.risedtc.com/guides/chatgpt-ads/</text></svg>